<svg width="72" height="87" fill="none" xmlns="http://www.w3.org/2000/svg"><path d="M53.35 1.49c0-.74-.58-1.49-1.31-1.49H9.05c-.73 0-1.38.75-1.38 1.49v3.52h45.68V1.5ZM54.2 81.8h-9.6V71.44h-6.95v2.5H18.77a3.49 3.49 0 0 0-3.18-2.15H3.56A3.59 3.59 0 0 0 0 75.31v3.02a3.55 3.55 0 0 0 3.56 3.48h12.03c1.52 0 2.8-.9 3.27-2.33h18.79v2.33h-9.52c-.53 0-1.01.44-1.01.97v3.17c0 .54.48 1.05 1.01 1.05H54.2c.53 0 .93-.51.93-1.05v-3.17c0-.53-.4-.97-.93-.97ZM60.67 12.39a7.04 7.04 0 0 0-6.77-5.05H7.15A7.1 7.1 0 0 0 0 14.36v46.9a7.18 7.18 0 0 0 7.15 7.12h46.74c3.9 0 7.13-3.2 7.13-7.12V50.92a23.3 23.3 0 0 0-.36-38.52ZM12.24 62.15a5.91 5.91 0 1 1 .02-11.82 5.91 5.91 0 0 1-.02 11.82Zm5.96-32.6c0 .78-.64 1.42-1.42 1.42H7.84c-.78 0-1.42-.64-1.42-1.42V15.39c0-.79.64-1.43 1.42-1.43h8.94c.78 0 1.42.64 1.42 1.43v14.16Zm29.56 22.3a20.1 20.1 0 0 1-20.05-20.12 20.1 20.1 0 0 1 20.05-20.12 20.1 20.1 0 0 1 20.06 20.13 20.1 20.1 0 0 1-20.06 20.12Z" fill="#363636"/><path d="M47.76 43.96a12.2 12.2 0 0 0 12.19-12.23 12.2 12.2 0 0 0-12.19-12.22 12.2 12.2 0 0 0-12.19 12.22 12.2 12.2 0 0 0 12.2 12.23ZM31.56 33.17a1.44 1.44 0 1 0 0-2.87 1.44 1.44 0 0 0 0 2.87ZM63.96 33.17a1.44 1.44 0 1 0 0-2.87 1.44 1.44 0 0 0 0 2.87ZM39.1 19.43a1.44 1.44 0 1 0 0-2.87 1.44 1.44 0 0 0 0 2.87ZM56.41 46.91a1.43 1.43 0 1 0 0-2.86 1.43 1.43 0 0 0 0 2.86ZM55.7 19a1.44 1.44 0 1 0 0-2.87 1.44 1.44 0 0 0 0 2.87ZM39.83 47.34a1.44 1.44 0 1 0 0-2.87 1.44 1.44 0 0 0 0 2.87Z" fill="#363636"/></svg>