<svg width="145" height="36" viewBox="0 0 145 36" fill="none" xmlns="http://www.w3.org/2000/svg">
<path d="M27.2 0V35.3H19.6V32.9C17.9 34.8 15.5 36 12.1 36C5.5 36 0 30.2 0 22.7C0 15.2 5.5 9.4 12.1 9.4C15.5 9.4 18 10.6 19.6 12.5V0H27.2ZM19.6 22.7C19.6 18.9 17.1 16.5 13.6 16.5C10.1 16.5 7.6 18.9 7.6 22.7C7.6 26.5 10.1 28.9 13.6 28.9C17.1 28.8 19.6 26.5 19.6 22.7Z" fill="black"/>
<path d="M43.7 29.2C45.8 29.2 47.5 28.4 48.5 27.3L54.6 30.8C52.1 34.2 48.4 36 43.6 36C35 36 29.6 30.2 29.6 22.7C29.6 15.2 35 9.4 43 9.4C50.4 9.4 55.8 15.1 55.8 22.7C55.8 23.8 55.7 24.8 55.5 25.7H37.6C38.6 28.3 40.9 29.2 43.7 29.2ZM48.3 20.1C47.5 17.2 45.2 16.1 42.9 16.1C40 16.1 38.1 17.5 37.4 20.1H48.3Z" fill="black"/>
<path d="M82.1 10.1L72.8 35.3H64.2L54.9 10.1H63.3L68.6 26.1L73.9 10.1C73.9 10.1 82.1 10.1 82.1 10.1Z" fill="black"/>
<path d="M83.4 10.1H91V35.3H83.4V10.1Z" fill="black"/>
<path d="M93.6 22.7C93.6 15.2 99.3 9.4 107 9.4C111.9 9.4 116.2 12 118.4 15.9L111.8 19.7C110.9 17.9 109.1 16.9 106.9 16.9C103.6 16.9 101.2 19.3 101.2 22.7C101.2 26.2 103.6 28.5 106.9 28.5C109.1 28.5 111 27.4 111.8 25.7L118.4 29.5C116.3 33.4 112 36 107 36C99.3 36 93.6 30.2 93.6 22.7Z" fill="black"/>
<path d="M132.8 29.2C134.9 29.2 136.6 28.4 137.6 27.3L143.7 30.8C141.2 34.2 137.5 36 132.7 36C124.1 36 118.7 30.2 118.7 22.7C118.7 15.2 124.2 9.4 132.1 9.4C139.5 9.4 144.9 15.1 144.9 22.7C144.9 23.8 144.8 24.8 144.6 25.7H126.7C127.7 28.3 130 29.2 132.8 29.2ZM137.5 20.1C136.7 17.2 134.4 16.1 132.1 16.1C129.2 16.1 127.3 17.5 126.6 20.1H137.5Z" fill="black"/>
<path d="M83.4 0V10.1L91 0H83.4Z" fill="#510094"/>
</svg>
