<svg width="87" height="117" fill="none" xmlns="http://www.w3.org/2000/svg"><path d="M82.82 4.01H3.33A3.19 3.19 0 0 0 .14 7.2V53.6a3.19 3.19 0 0 0 3.19 3.2h79.5A3.19 3.19 0 0 0 86 53.6V7.2A3.19 3.19 0 0 0 82.82 4ZM8.4 37.24h-.22a3.19 3.19 0 0 1-3.2-3.2v-7.28a3.19 3.19 0 0 1 3.2-3.18h.22v13.66ZM69.62 52.4H13.34v-44h56.28v44Zm8.78-17.86a4.15 4.15 0 1 1 0-8.29 4.15 4.15 0 0 1 0 8.3ZM54.65 0H31.5v2.76h23.15V0ZM46.6 64.86V61.9h8.05v-2.76H31.5v2.76h8.04v35.24a6.07 6.07 0 0 0-3.63 5.56V117h14.33v-14.3c0-2.5-1.5-4.63-3.63-5.56v-28h4.8l5.04 1.22v-6.71l-5.05 1.21h-4.8Z" fill="#363636"/></svg>