<svg width="57" height="98" fill="none" xmlns="http://www.w3.org/2000/svg"><path d="M54.5 32.2h-1.52v-4.64a9.16 9.16 0 0 0-9.08-9.19H9.08c-5 0-9.08 4.13-9.08 9.19v42.86a9.16 9.16 0 0 0 9.08 9.19H43.9c5 0 9.08-4.13 9.08-9.19v-3.41h1.52c.41 0 .75-.34.75-.76V52.47a.76.76 0 0 0-.76-.77h-1.51v-8.79h1.52c.83 0 1.5-.68 1.5-1.53v-7.65c0-.84-.67-1.53-1.5-1.53Zm-20.42-3.11c2.93 0 5.3 2.4 5.3 5.36a5.33 5.33 0 0 1-5.3 5.35c-2.92 0-5.3-2.4-5.3-5.35a5.33 5.33 0 0 1 5.3-5.36Zm-15.13 0c2.92 0 5.3 2.4 5.3 5.36a5.33 5.33 0 0 1-5.3 5.35c-2.93 0-5.3-2.4-5.3-5.35a5.33 5.33 0 0 1 5.3-5.36ZM5.3 49.39a5.33 5.33 0 0 1 5.3-5.35c2.92 0 5.3 2.4 5.3 5.36a5.33 5.33 0 0 1-5.3 5.36c-2.93 0-5.3-2.4-5.3-5.36Zm13.64 19.5c-2.92 0-5.3-2.4-5.3-5.35a5.33 5.33 0 0 1 5.3-5.36c2.93 0 5.3 2.4 5.3 5.36a5.33 5.33 0 0 1-5.3 5.35Zm1.5-19.9a6.09 6.09 0 0 1 6.05-6.12 6.09 6.09 0 0 1 6.06 6.12 6.09 6.09 0 0 1-6.06 6.13 6.1 6.1 0 0 1-6.05-6.13Zm13.64 19.9c-2.92 0-5.3-2.4-5.3-5.35a5.33 5.33 0 0 1 5.3-5.36c2.93 0 5.3 2.4 5.3 5.36a5.33 5.33 0 0 1-5.3 5.35Zm8.3-14.13c-2.92 0-5.3-2.4-5.3-5.36a5.33 5.33 0 0 1 5.3-5.36c2.93 0 5.3 2.4 5.3 5.36a5.33 5.33 0 0 1-5.3 5.36ZM9.65 15.31h33.68c.85 0 1.44-.68 1.3-1.51l-1.6-10.77A3.68 3.68 0 0 0 39.5 0H13.47a3.68 3.68 0 0 0-3.51 3.03L8.34 13.8c-.12.83.46 1.51 1.3 1.51ZM43.33 82.67H9.65c-.85 0-1.43.68-1.3 1.52l1.6 10.76a3.68 3.68 0 0 0 3.52 3.03h26.04a3.68 3.68 0 0 0 3.51-3.02l1.62-10.77a1.28 1.28 0 0 0-1.3-1.52Z" fill="#363636"/></svg>