<svg width="97" height="55" fill="none" xmlns="http://www.w3.org/2000/svg"><path d="M84.13 32.64V20c0-1.3 1.05-2.37 2.34-2.37l8.32 1.58v-8.19c0-2.36-1.7-3.43-4.2-4.27L67.4.17c1.62 1.4 1.9 2.04 1.9 4.4v45.21c0 2.36-.46 4.07-1.97 5.21l23.26-7.07c2.4-.83 4.2-4.21 4.2-6.57v-7.91l-8.32 1.57a2.35 2.35 0 0 1-2.34-2.37Z" fill="#363636"/><path d="m95.13 20.98-7.6-1.45c-1 0-1.82.83-1.82 1.86v9.86c0 1.03.81 1.86 1.82 1.86l7.6-1.43c1.15-.42 1.82-.83 1.82-1.86v-6.99c0-1.02-.76-1.5-1.82-1.85ZM67.17 4.48c0-5.08-4.23-4.46-4.23-4.46S5.84 4.74 2.84 5.14C-.16 5.55 0 9.54 0 9.54V45.8c0 3.74 2.6 3.75 2.6 3.75l16.48 1.4L27.2 39.3s1.11-1.83 2.5-1.83c1.4 0 2.44 1.86 2.44 1.86l9.06 13.52s18.9 1.91 22.52 1.91c3.63 0 3.44-5.02 3.44-5.02V4.48ZM12.98 37.2c-3.7 0-6.7-4.6-6.7-10.27 0-5.68 3-10.28 6.7-10.28s6.7 4.6 6.7 10.28c0 5.67-3 10.27-6.7 10.27Zm36.16 1.43c-4.66 0-8.44-5.24-8.44-11.7 0-6.47 3.78-11.7 8.44-11.7s8.44 5.23 8.44 11.7c0 6.46-3.78 11.7-8.44 11.7Z" fill="#363636"/></svg>